# xmcd CD database file
#
# Track frame offsets:
#	183
#	6633
#	48200
#	51620
#	81953
#	103203
#	142525
#	170828
#	176183
#	209190
#	235690
#	266295
#	273690
#	306858
#
# Disc length: 4474 seconds
#
# Revision: 0
# Processed by: cddbd v1.5.1PL0 Copyright (c) Steve Scherf et al.
# Submitted via: CDex 1.51
#
DISCID=d411780e
DTITLE=Pago Libre - Extempora
DYEAR=1989
DGENRE=Jazz
TTITLE0=Attacca
TTITLE1=58 West 9th Street
TTITLE2=The Story Of The Noble Knight
TTITLE3=The True Story Of The Noble Knight
TTITLE4=Paniconversation No. 1
TTITLE5=Intermezzo Per Quattro
TTITLE6=Warsaw For Saw - 11-1
TTITLE7=March Of The Little People...
TTITLE8=Fille Rouge
TTITLE9=Paniconversation No. 2
TTITLE10=Cascades
TTITLE11=Big Mama Takes A Shower
TTITLE12=Milesamkeit
TTITLE13=One For Bob
EXTD=YEAR: 1989
EXTT0=
EXTT1=
EXTT2=
EXTT3=
EXTT4=
EXTT5=
EXTT6=
EXTT7=
EXTT8=
EXTT9=
EXTT10=
EXTT11=
EXTT12=
EXTT13=
PLAYORDER=
